name rise30.2954peak35.7071fall66.7804.mot
datacolumns 19
datarows 15
range 23.23991400000000 23.26324700000000
endheader
time	ground_force1_vx	ground_force1_vy	ground_force1_vz	ground_force1_px	ground_force1_py	ground_force1_pz	ground_force2_vx	ground_force2_vy	ground_force2_vz	ground_force2_px	ground_force2_py	ground_force2_pz	ground_torque1_x	ground_torque1_y	ground_torque1_z	ground_torque2_x	ground_torque2_y	ground_torque2_z	
23.23991400000000	9.39675300000000	691.23227799999995	42.13006000000000	0.15548000000000	0.00000000000000	0.10839100000000	0.00000000000000	0.00000000000000	0.00000000000000	0.00000000000000	0.00000000000000	0.00000000000000	0.00000000000000	11.13434600000000	0.00000000000000	0.00000000000000	0.00000000000000	0.00000000000000	
23.24158200000000	9.11460000000000	691.63819899999999	42.12399000000000	0.15457700000000	0.00000000000000	0.10835800000000	0.00000000000000	0.00000000000000	0.00000000000000	0.00000000000000	0.00000000000000	0.00000000000000	0.00000000000000	11.14544200000000	0.00000000000000	0.00000000000000	0.00000000000000	0.00000000000000	
23.24324800000000	8.82049800000000	692.10075400000005	42.12929800000000	0.15365900000000	0.00000000000000	0.10832500000000	0.00000000000000	0.00000000000000	0.00000000000000	0.00000000000000	0.00000000000000	0.00000000000000	0.00000000000000	11.16281300000000	0.00000000000000	0.00000000000000	0.00000000000000	0.00000000000000	
23.24493800000000	8.51433900000000	692.61872600000004	42.14563800000000	0.15272700000000	0.00000000000000	0.10829300000000	0.00000000000000	0.00000000000000	0.00000000000000	0.00000000000000	0.00000000000000	0.00000000000000	0.00000000000000	11.18638700000000	0.00000000000000	0.00000000000000	0.00000000000000	0.00000000000000	
23.24657900000000	8.19605400000000	693.19088499999998	42.17265200000000	0.15178200000000	0.00000000000000	0.10826100000000	0.00000000000000	0.00000000000000	0.00000000000000	0.00000000000000	0.00000000000000	0.00000000000000	0.00000000000000	11.21608200000000	0.00000000000000	0.00000000000000	0.00000000000000	0.00000000000000	
23.24825300000000	7.86561500000000	693.81598799999995	42.20997300000000	0.15082500000000	0.00000000000000	0.10822900000000	0.00000000000000	0.00000000000000	0.00000000000000	0.00000000000000	0.00000000000000	0.00000000000000	0.00000000000000	11.25180500000000	0.00000000000000	0.00000000000000	0.00000000000000	0.00000000000000	
23.24991500000000	7.52302900000000	694.49278700000002	42.25721800000000	0.14985600000000	0.00000000000000	0.10819700000000	0.00000000000000	0.00000000000000	0.00000000000000	0.00000000000000	0.00000000000000	0.00000000000000	0.00000000000000	11.29345500000000	0.00000000000000	0.00000000000000	0.00000000000000	0.00000000000000	
23.25157800000000	7.16834300000000	695.22003099999995	42.31400100000000	0.14887800000000	0.00000000000000	0.10816600000000	0.00000000000000	0.00000000000000	0.00000000000000	0.00000000000000	0.00000000000000	0.00000000000000	0.00000000000000	11.34092000000000	0.00000000000000	0.00000000000000	0.00000000000000	0.00000000000000	
23.25325200000000	6.80164200000000	695.99647200000004	42.37992600000000	0.14789000000000	0.00000000000000	0.10813400000000	0.00000000000000	0.00000000000000	0.00000000000000	0.00000000000000	0.00000000000000	0.00000000000000	0.00000000000000	11.39408000000000	0.00000000000000	0.00000000000000	0.00000000000000	0.00000000000000	
23.25491500000000	6.42304700000000	696.82086600000002	42.45459300000000	0.14689400000000	0.00000000000000	0.10810200000000	0.00000000000000	0.00000000000000	0.00000000000000	0.00000000000000	0.00000000000000	0.00000000000000	0.00000000000000	11.45280700000000	0.00000000000000	0.00000000000000	0.00000000000000	0.00000000000000	
23.25657900000000	6.03271400000000	697.69197599999995	42.53759700000000	0.14589100000000	0.00000000000000	0.10807000000000	0.00000000000000	0.00000000000000	0.00000000000000	0.00000000000000	0.00000000000000	0.00000000000000	0.00000000000000	11.51696400000000	0.00000000000000	0.00000000000000	0.00000000000000	0.00000000000000	
23.25825100000000	5.63083700000000	698.60857699999997	42.62853000000000	0.14488200000000	0.00000000000000	0.10803800000000	0.00000000000000	0.00000000000000	0.00000000000000	0.00000000000000	0.00000000000000	0.00000000000000	0.00000000000000	11.58640400000000	0.00000000000000	0.00000000000000	0.00000000000000	0.00000000000000	
23.25991100000000	5.21764200000000	699.56945399999995	42.72698500000000	0.14386800000000	0.00000000000000	0.10800600000000	0.00000000000000	0.00000000000000	0.00000000000000	0.00000000000000	0.00000000000000	0.00000000000000	0.00000000000000	11.66097400000000	0.00000000000000	0.00000000000000	0.00000000000000	0.00000000000000	
23.26158600000000	4.79338900000000	700.57340899999997	42.83255400000000	0.14285000000000	0.00000000000000	0.10797300000000	0.00000000000000	0.00000000000000	0.00000000000000	0.00000000000000	0.00000000000000	0.00000000000000	0.00000000000000	11.74051400000000	0.00000000000000	0.00000000000000	0.00000000000000	0.00000000000000	
23.26324700000000	4.35837100000000	701.61925900000006	42.94483000000000	0.14182900000000	0.00000000000000	0.10794000000000	0.00000000000000	0.00000000000000	0.00000000000000	0.00000000000000	0.00000000000000	0.00000000000000	0.00000000000000	11.82485500000000	0.00000000000000	0.00000000000000	0.00000000000000	0.00000000000000	
